<svg xmlns="http://www.w3.org/2000/svg" xmlns:xlink="http://www.w3.org/1999/xlink" version="1.1" x="0px" y="0px" width="40px" height="40px" viewBox="0 0 84 84" enable-background="new 0 0 84 84" xml:space="preserve">
<g id="Capa_2" display="none">
</g>
<g id="Capa_1">
	<circle fill="none" stroke="#3898ec" stroke-width="2.7" stroke-miterlimit="10" cx="42" cy="42" r="40.7"/>
	<path fill="#3898ec" d="M53,24H31c-3.8,0-7,3.1-7,7v7.3V53c0,3.8,3.1,7,7,7H53c3.8,0,7-3.1,7-7V38.3V31C60,27.1,56.9,24,53,24z    M55,28.2l0.8,0v0.8v5.3l-6.1,0l0-6.1L55,28.2z M36.9,38.3c1.1-1.6,3-2.6,5.1-2.6c2.1,0,4,1,5.1,2.6c0.8,1,1.2,2.3,1.2,3.7   c0,3.5-2.8,6.3-6.3,6.3c-3.5,0-6.3-2.8-6.3-6.3C35.7,40.6,36.1,39.3,36.9,38.3z M56.5,53c0,1.9-1.5,3.4-3.5,3.4H31   c-1.9,0-3.4-1.5-3.4-3.4V38.3h5.4c-0.5,1.1-0.7,2.4-0.7,3.7c0,5.4,4.4,9.8,9.8,9.8c5.4,0,9.8-4.4,9.8-9.8c0-1.3-0.3-2.6-0.7-3.7   h5.4V53z"/>
</g>
</svg>