<svg xmlns="http://www.w3.org/2000/svg" xmlns:xlink="http://www.w3.org/1999/xlink" version="1.1" x="0px" y="0px" width="40px" height="40px" viewBox="0 0 84 84" enable-background="new 0 0 84 84" xml:space="preserve">
<g id="Capa_2" display="none">
</g>
<g id="Capa_1">
	<circle fill="none" stroke="#FCD750" stroke-width="2.7" stroke-miterlimit="10" cx="42" cy="42" r="40.7"/>
	<path fill="#FCD750" d="M31.9,58.5h-7V36.1h7V58.5z M28.2,33.3L28.2,33.3c-2.6,0-4.2-1.7-4.2-3.9c0-2.2,1.7-3.9,4.3-3.9   c2.6,0,4.2,1.7,4.2,3.9C32.5,31.5,30.9,33.3,28.2,33.3z M60,58.5h-8V46.9c0-3-1.2-5.1-4-5.1c-2.1,0-3.3,1.4-3.8,2.8   c-0.2,0.5-0.2,1.2-0.2,1.8v12.2h-7.9c0,0,0.1-20.6,0-22.5h7.9v3.5c0.5-1.5,3-3.7,7-3.7c5,0,8.9,3.2,8.9,10.2V58.5z"/>
</g>
</svg>